<mxfile host="app.diagrams.net" agent="Mozilla/5.0 (Windows NT 10.0; Win64; x64) AppleWebKit/537.36 (KHTML, like Gecko) Chrome/136.0.0.0 Safari/537.36" version="27.0.6">
  <diagram name="第 1 页" id="o-oCzaQytmQCPjs0wbxv">
    <mxGraphModel dx="742" dy="790" grid="1" gridSize="10" guides="1" tooltips="1" connect="1" arrows="1" fold="1" page="1" pageScale="1" pageWidth="827" pageHeight="1169" math="0" shadow="0">
      <root>
        <mxCell id="0" />
        <mxCell id="1" parent="0" />
        <mxCell id="ogDhKEPJkO4YDTdz22Ph-1" value="&lt;div&gt;&lt;span style=&quot;background-color: light-dark(#ffffff, var(--ge-dark-color, #121212));&quot;&gt;&amp;lt;&amp;lt;node&amp;gt;&amp;gt;&amp;nbsp;&lt;/span&gt;&lt;/div&gt;&lt;div&gt;&lt;span style=&quot;color: light-dark(rgb(0, 0, 0), rgb(255, 255, 255));&quot;&gt;&lt;font&gt;Mobile Device&amp;nbsp;&amp;nbsp;&lt;/font&gt;&lt;/span&gt;&lt;/div&gt;" style="verticalAlign=top;align=left;spacingTop=8;spacingLeft=2;spacingRight=12;shape=cube;size=10;direction=south;fontStyle=4;html=1;whiteSpace=wrap;" parent="1" vertex="1">
          <mxGeometry x="60" y="130" width="150" height="120" as="geometry" />
        </mxCell>
        <mxCell id="9A0PWvvusTTax6L20ACh-4" value="&lt;font style=&quot;font-size: 10px;&quot;&gt;MobileApp.apk&amp;nbsp;&lt;/font&gt;" style="shape=module;align=center;spacingLeft=20;align=center;verticalAlign=top;whiteSpace=wrap;html=1;" vertex="1" parent="1">
          <mxGeometry x="90" y="180" width="100" height="50" as="geometry" />
        </mxCell>
        <mxCell id="9A0PWvvusTTax6L20ACh-5" value="&lt;div&gt;&amp;lt;&amp;lt;node&amp;gt;&amp;gt;&lt;/div&gt;&lt;div&gt;&lt;span style=&quot;background-color: transparent; color: light-dark(rgb(0, 0, 0), rgb(255, 255, 255));&quot;&gt;Web Server&lt;/span&gt;&lt;/div&gt;" style="verticalAlign=top;align=left;spacingTop=8;spacingLeft=2;spacingRight=12;shape=cube;size=10;direction=south;fontStyle=4;html=1;whiteSpace=wrap;" vertex="1" parent="1">
          <mxGeometry x="270" y="130" width="180" height="120" as="geometry" />
        </mxCell>
        <mxCell id="9A0PWvvusTTax6L20ACh-2" value="&lt;div&gt;&amp;lt;&amp;lt;component&amp;gt;&amp;gt;&amp;nbsp; &amp;nbsp; &amp;nbsp;&lt;span style=&quot;background-color: transparent; color: light-dark(rgb(0, 0, 0), rgb(255, 255, 255));&quot;&gt;REST API&amp;nbsp;&lt;/span&gt;&lt;/div&gt;" style="html=1;dropTarget=0;whiteSpace=wrap;" vertex="1" parent="1">
          <mxGeometry x="300" y="180" width="130" height="60" as="geometry" />
        </mxCell>
        <mxCell id="9A0PWvvusTTax6L20ACh-3" value="" style="shape=module;jettyWidth=8;jettyHeight=4;" vertex="1" parent="9A0PWvvusTTax6L20ACh-2">
          <mxGeometry x="1" width="20" height="20" relative="1" as="geometry">
            <mxPoint x="-27" y="7" as="offset" />
          </mxGeometry>
        </mxCell>
        <mxCell id="9A0PWvvusTTax6L20ACh-6" value="&lt;div&gt;&amp;nbsp;&amp;lt;&amp;lt;node&amp;gt;&amp;gt;&lt;/div&gt;&lt;div&gt;&lt;span style=&quot;background-color: transparent; color: light-dark(rgb(0, 0, 0), rgb(255, 255, 255));&quot;&gt;Database Server&lt;/span&gt;&lt;/div&gt;" style="verticalAlign=top;align=left;spacingTop=8;spacingLeft=2;spacingRight=12;shape=cube;size=10;direction=south;fontStyle=4;html=1;whiteSpace=wrap;" vertex="1" parent="1">
          <mxGeometry x="520" y="130" width="180" height="120" as="geometry" />
        </mxCell>
        <mxCell id="9A0PWvvusTTax6L20ACh-7" value="&lt;div&gt;&amp;lt;&amp;lt;database&amp;gt;&amp;gt;&lt;/div&gt;&lt;div&gt;MySQL DB&lt;/div&gt;" style="html=1;dropTarget=0;whiteSpace=wrap;" vertex="1" parent="1">
          <mxGeometry x="545" y="180" width="130" height="60" as="geometry" />
        </mxCell>
        <mxCell id="9A0PWvvusTTax6L20ACh-8" value="" style="shape=module;jettyWidth=8;jettyHeight=4;" vertex="1" parent="9A0PWvvusTTax6L20ACh-7">
          <mxGeometry x="1" width="20" height="20" relative="1" as="geometry">
            <mxPoint x="-27" y="7" as="offset" />
          </mxGeometry>
        </mxCell>
        <mxCell id="9A0PWvvusTTax6L20ACh-9" value="" style="line;strokeWidth=1;fillColor=none;align=left;verticalAlign=middle;spacingTop=-1;spacingLeft=3;spacingRight=3;rotatable=0;labelPosition=right;points=[];portConstraint=eastwest;strokeColor=inherit;" vertex="1" parent="1">
          <mxGeometry x="210" y="186" width="60" height="8" as="geometry" />
        </mxCell>
        <mxCell id="9A0PWvvusTTax6L20ACh-10" value="" style="line;strokeWidth=1;fillColor=none;align=left;verticalAlign=middle;spacingTop=-1;spacingLeft=3;spacingRight=3;rotatable=0;labelPosition=right;points=[];portConstraint=eastwest;strokeColor=inherit;" vertex="1" parent="1">
          <mxGeometry x="450" y="186" width="70" height="8" as="geometry" />
        </mxCell>
      </root>
    </mxGraphModel>
  </diagram>
</mxfile>
